<?xml version="1.0" encoding="UTF-8" standalone="no"?><!DOCTYPE svg PUBLIC "-//W3C//DTD SVG 1.1//EN" "http://www.w3.org/Graphics/SVG/1.1/DTD/svg11.dtd"><svg width="100%" height="100%" viewBox="0 0 123 123" version="1.1" xmlns="http://www.w3.org/2000/svg" xmlns:xlink="http://www.w3.org/1999/xlink" xml:space="preserve" xmlns:serif="http://www.serif.com/" style="fill-rule:evenodd;clip-rule:evenodd;stroke-linecap:square;stroke-miterlimit:1.5;"><path d="M57.639,113.669l0,-104.458l36.25,30.103l-36.25,-30.103l0,24.699l31.706,26.329" style="fill:none;stroke:#000;stroke-width:9.5px;"/><g><path d="M39.741,40.249c1.734,-2.811 6.067,-5.045 11.703,-6.989c-2.597,-4.768 -11.174,-1.984 -17.067,-3.901c-7.329,-0.462 -12.718,2.954 -16.579,9.427c-1.731,10.751 0.365,10.646 1.3,14.141c11.552,43.155 31.946,28.048 86.471,40.635c-13.605,-20.859 -41.928,-35.542 -65.829,-53.313Z" style="fill:#202020;"/><path d="M35.213,54.235c14.146,20.606 30.058,27.69 72.795,37.245c-16.034,-9.438 -28.951,-17.506 -39.237,-23.786c-19.681,-12.014 -29.732,-17.479 -33.558,-13.459Z" style="fill:#1d1d1d;"/><clipPath id="_clip1"><path d="M35.213,54.235c14.146,20.606 30.058,27.69 72.795,37.245c-16.034,-9.438 -28.951,-17.506 -39.237,-23.786c-19.681,-12.014 -29.732,-17.479 -33.558,-13.459Z"/></clipPath><g clip-path="url(#_clip1)"><path d="M39.263,62.495c14.146,20.606 30.058,27.69 72.795,37.245c-16.034,-9.438 -28.951,-17.506 -39.237,-23.786c-19.681,-12.014 -29.732,-17.479 -33.558,-13.459Z" style="fill:#272727;"/></g><path d="M31.777,52.927c16.185,19.046 32.739,24.461 76.231,29.582c-16.917,-7.744 -30.594,-14.445 -41.47,-19.636c-20.809,-9.932 -31.368,-14.337 -34.761,-9.946Z" style="fill:#272727;"/><clipPath id="_clip2"><path d="M31.777,52.927c16.185,19.046 32.739,24.461 76.231,29.582c-16.917,-7.744 -30.594,-14.445 -41.47,-19.636c-20.809,-9.932 -31.368,-14.337 -34.761,-9.946Z"/></clipPath><g clip-path="url(#_clip2)"><path d="M36.653,60.729c16.185,19.046 32.739,24.461 76.231,29.582c-16.917,-7.744 -30.594,-14.445 -41.47,-19.636c-20.809,-9.932 -31.368,-14.337 -34.761,-9.946Z" style="fill:#272727;"/></g><path d="M18.773,38.136c-1.841,0.974 -3.297,2.605 -3.901,5.689c1.534,-2.196 4.228,-3.22 3.901,-5.689Z" style="fill:#1d1d1d;"/><path d="M17.89,39.848c-1.391,1.55 -2.194,3.584 -1.697,6.686c0.681,-2.59 2.856,-4.482 1.697,-6.686Z" style="fill:#1d1d1d;"/></g></svg>